<svg xmlns="http://www.w3.org/2000/svg" xmlns:xlink="http://www.w3.org/1999/xlink" version="1.1" width="200" height="350" viewBox="0 0 200 350" xml:space="preserve">
<desc>Created with Fabric.js 3.5.0</desc>
<defs>
</defs>
<rect x="0" y="0" width="100%" height="100%" fill="rgba(0,0,0,0)"/>
<g transform="matrix(1.1011 0 0 1.1011 99.997 321.8713)" id="557632">
<path style="stroke: none; stroke-width: 0; stroke-dasharray: none; stroke-linecap: butt; stroke-dashoffset: 0; stroke-linejoin: miter; stroke-miterlimit: 4; is-custom-font: none; font-file-url: none; fill: rgb(255,255,255); fill-rule: nonzero; opacity: 1;" vector-effect="non-scaling-stroke" transform=" translate(-56.1905, -25.8888)" d="M 111.422 50.9611 H 0.955078 V 0.816406 H 111.426 V 50.9611 H 111.422 Z M 3.16807 49.0894 H 109.206 V 2.68805 H 3.16807 V 49.0894 Z" stroke-linecap="round"/>
</g>
<g transform="matrix(1.1011 0 0 1.1011 100.0002 175.0003)" id="513068">
<path style="stroke: none; stroke-width: 0; stroke-dasharray: none; stroke-linecap: butt; stroke-dashoffset: 0; stroke-linejoin: miter; stroke-miterlimit: 4; is-custom-font: none; font-file-url: none; fill: rgb(255,255,255); fill-rule: nonzero; opacity: 1;" vector-effect="non-scaling-stroke" transform=" translate(-90.3452, -158.481)" d="M 180.04 0 V 316.962 H 0.650391 V 0 H 180.04 Z M 177.824 315.169 V 1.79312 H 2.8671 V 315.169 H 177.824 Z" stroke-linecap="round"/>
</g>
<g transform="matrix(1.1011 0 0 1.1011 99.997 28.9917)" id="854901">
<path style="stroke: none; stroke-width: 0; stroke-dasharray: none; stroke-linecap: butt; stroke-dashoffset: 0; stroke-linejoin: miter; stroke-miterlimit: 4; is-custom-font: none; font-file-url: none; fill: rgb(255,255,255); fill-rule: nonzero; opacity: 1;" vector-effect="non-scaling-stroke" transform=" translate(-56.1905, -25.0723)" d="M 111.422 50.1446 H 0.955078 V 0 H 111.426 V 50.1446 H 111.422 Z M 3.16807 48.273 H 109.206 V 1.87163 H 3.16807 V 48.273 Z" stroke-linecap="round"/>
</g>
<g transform="matrix(1.1011 0 0 1.1011 99.9949 335.1573)" id="405013">
<path style="stroke: none; stroke-width: 0; stroke-dasharray: none; stroke-linecap: butt; stroke-dashoffset: 0; stroke-linejoin: miter; stroke-miterlimit: 4; is-custom-font: none; font-file-url: none; fill: rgb(255,255,255); fill-rule: nonzero; opacity: 1;" vector-effect="non-scaling-stroke" transform=" translate(-31.1873, -13.004)" d="M 62.0427 26.0081 H 0.328125 V 0 H 62.0464 V 26.0081 H 62.0427 Z M 2.54112 24.1365 H 59.826 V 1.87163 H 2.54112 V 24.1365 Z" stroke-linecap="round"/>
</g>
<g transform="matrix(1.1011 0 0 1.1011 99.9949 15.8133)" id="642404">
<path style="stroke: none; stroke-width: 0; stroke-dasharray: none; stroke-linecap: butt; stroke-dashoffset: 0; stroke-linejoin: miter; stroke-miterlimit: 4; is-custom-font: none; font-file-url: none; fill: rgb(255,255,255); fill-rule: nonzero; opacity: 1;" vector-effect="non-scaling-stroke" transform=" translate(-31.1873, -13.004)" d="M 62.0427 26.0081 H 0.328125 V 0 H 62.0464 V 26.0081 H 62.0427 Z M 2.54112 24.1365 H 59.826 V 1.87163 H 2.54112 V 24.1365 Z" stroke-linecap="round"/>
</g>
<g transform="matrix(1.1011 0 0 1.1011 99.994 283.7479)" id="260128">
<path style="stroke: none; stroke-width: 0; stroke-dasharray: none; stroke-linecap: butt; stroke-dashoffset: 0; stroke-linejoin: miter; stroke-miterlimit: 4; is-custom-font: none; font-file-url: none; fill: rgb(255,255,255); fill-rule: nonzero; opacity: 1;" vector-effect="non-scaling-stroke" transform=" translate(-25.19, -11.8116)" d="M 49.65 22.6897 H 0.729907 L 0.71875 21.7036 C 0.71875 21.6659 0.71875 21.6314 0.71875 21.5937 C 0.71875 16.0762 3.26276 10.8853 7.88586 6.98498 C 12.509 3.08157 18.6533 0.933594 25.1881 0.933594 C 31.723 0.933594 37.871 3.08157 42.4904 6.98498 C 47.1135 10.8884 49.6612 16.0762 49.6612 21.5969 C 49.6612 21.6314 49.6612 21.6691 49.6612 21.7036 V 21.7633 L 49.65 22.6897 Z M 2.95406 20.8181 H 47.4259 C 46.9424 10.8162 37.1531 2.80523 25.1918 2.80523 C 13.2305 2.80523 3.43757 10.8162 2.95406 20.8181 Z" stroke-linecap="round"/>
</g>
<g transform="matrix(1.1011 0 0 1.1011 99.994 66.9413)" id="912687">
<path style="stroke: none; stroke-width: 0; stroke-dasharray: none; stroke-linecap: butt; stroke-dashoffset: 0; stroke-linejoin: miter; stroke-miterlimit: 4; is-custom-font: none; font-file-url: none; fill: rgb(255,255,255); fill-rule: nonzero; opacity: 1;" vector-effect="non-scaling-stroke" transform=" translate(-25.1881, -11.2452)" d="M 25.1881 22.1233 C 18.6533 22.1233 12.5052 19.9753 7.88586 16.0719 C 3.26275 12.1685 0.71875 6.9807 0.71875 1.46316 C 0.71875 1.42862 0.71875 1.39093 0.71875 1.35639 V 1.29672 L 0.726185 0.367188 H 49.6463 L 49.6574 1.35325 C 49.6574 1.38779 49.6574 1.42548 49.6574 1.46002 C 49.6574 6.97756 47.1134 12.1685 42.4903 16.0688 C 37.8709 19.9753 31.7267 22.1233 25.1881 22.1233 Z M 2.95406 2.23882 C 3.43757 12.2407 13.2268 20.2517 25.1881 20.2517 C 37.1531 20.2517 46.9386 12.2407 47.4221 2.23882 H 2.95406 Z" stroke-linecap="round"/>
</g>
<g transform="matrix(1.1011 0 0 1.1011 99.9939 174.9871)" id="973664">
<path style="stroke: none; stroke-width: 0; stroke-dasharray: none; stroke-linecap: butt; stroke-dashoffset: 0; stroke-linejoin: miter; stroke-miterlimit: 4; is-custom-font: none; font-file-url: none; fill: rgb(255,255,255); fill-rule: nonzero; opacity: 1;" vector-effect="non-scaling-stroke" transform=" translate(-25.181, -21.4801)" d="M 25.1811 42.0618 C 18.6685 42.0618 12.5465 39.9201 7.94576 36.0323 C 3.34125 32.1446 0.804688 26.9757 0.804688 21.4801 C 0.804688 15.9814 3.34125 10.8124 7.94576 6.92785 C 12.5503 3.04013 18.6723 0.898438 25.1811 0.898438 C 31.6936 0.898438 37.8118 3.04013 42.4163 6.92785 C 47.0208 10.8156 49.5574 15.9845 49.5574 21.4801 C 49.5574 26.9788 47.0208 32.1478 42.4163 36.0323 C 37.8155 39.9201 31.6936 42.0618 25.1811 42.0618 Z M 25.1811 2.77007 C 12.9631 2.77007 3.02139 11.1641 3.02139 21.4801 C 3.02139 31.7961 12.9631 40.1901 25.1811 40.1901 C 37.399 40.1901 47.3407 31.7961 47.3407 21.4801 C 47.3444 11.161 37.4027 2.77007 25.1811 2.77007 Z" stroke-linecap="round"/>
</g>
<g transform="matrix(1.1011 0 0 1.1011 100.0001 174.9852)" id="74649">
<path style="stroke: none; stroke-width: 0; stroke-dasharray: none; stroke-linecap: butt; stroke-dashoffset: 0; stroke-linejoin: miter; stroke-miterlimit: 4; is-custom-font: none; font-file-url: none; fill: rgb(255,255,255); fill-rule: nonzero; opacity: 1;" vector-effect="non-scaling-stroke" transform=" translate(-90.1831, -1.6663)" d="M 179.878 0.730469 H 0.488281 V 2.60209 H 179.878 V 0.730469 Z" stroke-linecap="round"/>
</g>
<g transform="matrix(1.1011 0 0 1.1011 190.0851 7.3831)" id="646597">
<path style="stroke: none; stroke-width: 0; stroke-dasharray: none; stroke-linecap: butt; stroke-dashoffset: 0; stroke-linejoin: miter; stroke-miterlimit: 4; is-custom-font: none; font-file-url: none; fill: rgb(255,255,255); fill-rule: nonzero; opacity: 1;" vector-effect="non-scaling-stroke" transform=" translate(-7.6601, -6.2657)" d="M 15.0448 12.5196 L 13.9364 12.5165 C 6.40483 12.5039 0.275391 7.32238 0.275391 0.963235 V 0.0117188 L 1.38376 0.0148597 H 15.0448 V 12.5196 Z M 2.54418 1.88649 C 3.06117 6.47764 7.39416 10.1487 12.8318 10.6009 V 1.88649 H 2.54418 Z" stroke-linecap="round"/>
</g>
<g transform="matrix(1.1011 0 0 1.1011 9.545 7.3624)" id="531070">
<path style="stroke: none; stroke-width: 0; stroke-dasharray: none; stroke-linecap: butt; stroke-dashoffset: 0; stroke-linejoin: miter; stroke-miterlimit: 4; is-custom-font: none; font-file-url: none; fill: rgb(255,255,255); fill-rule: nonzero; opacity: 1;" vector-effect="non-scaling-stroke" transform=" translate(-8.0575, -6.2546)" d="M 1.77558 12.4897 H 0.652344 V 0.0195312 H 15.4626 L 15.4589 0.955344 C 15.4478 7.31763 9.3109 12.4897 1.77558 12.4897 Z M 2.86905 1.89116 V 10.5741 C 8.30669 10.1376 12.6546 6.47602 13.1901 1.89116 H 2.86905 Z" stroke-linecap="round"/>
</g>
<g transform="matrix(1.1011 0 0 1.1011 190.5627 342.609)" id="81573">
<path style="stroke: none; stroke-width: 0; stroke-dasharray: none; stroke-linecap: butt; stroke-dashoffset: 0; stroke-linejoin: miter; stroke-miterlimit: 4; is-custom-font: none; font-file-url: none; fill: rgb(255,255,255); fill-rule: nonzero; opacity: 1;" vector-effect="non-scaling-stroke" transform=" translate(-7.6395, -6.7312)" d="M 15.0428 12.9664 H 0.232422 L 0.236145 12.0305 C 0.251022 5.67135 6.38793 0.496094 13.9196 0.496094 H 15.0465 L 15.0428 1.43191 V 12.9664 Z M 2.50495 11.0947 H 12.8261 V 2.40858 C 7.39215 2.84509 3.04053 6.50669 2.50495 11.0947 Z" stroke-linecap="round"/>
</g>
<g transform="matrix(1.1011 0 0 1.1011 10.0441 342.5903)" id="367745">
<path style="stroke: none; stroke-width: 0; stroke-dasharray: none; stroke-linecap: butt; stroke-dashoffset: 0; stroke-linejoin: miter; stroke-miterlimit: 4; is-custom-font: none; font-file-url: none; fill: rgb(255,255,255); fill-rule: nonzero; opacity: 1;" vector-effect="non-scaling-stroke" transform=" translate(-8.037, -6.6156)" d="M 15.4217 12.868 H 0.652344 V 0.363281 L 1.7607 0.366386 C 9.29231 0.378948 15.4217 5.56048 15.4217 11.9196 V 12.868 Z M 2.86905 10.9995 H 13.153 C 12.636 6.40838 8.29925 2.73736 2.86905 2.28515 V 10.9995 Z" stroke-linecap="round"/>
</g>
</svg>