<?xml version="1.0" encoding="UTF-8"?>
<svg xmlns="http://www.w3.org/2000/svg" xmlns:xlink="http://www.w3.org/1999/xlink" width="2625" height="3750" viewBox="0 0 2625 3750">

<path fill-rule="nonzero" fill="rgb(0%, 0%, 0%)" fill-opacity="1" d="M 1375.101562 777.921875 C 1375.101562 777.921875 1396.71875 722.070312 1399.121094 702.859375 C 1401.519531 683.640625 1411.128906 587.570312 1411.128906 587.570312 C 1411.128906 587.570312 1425.539062 540.730469 1425.539062 519.109375 C 1425.539062 497.5 1401.519531 450.660156 1385.910156 443.449219 C 1370.300781 436.25 1375.101562 417.03125 1357.089844 406.21875 C 1339.070312 395.410156 1265.820312 375 1265.820312 375 L 1280.230469 388.210938 C 1280.230469 388.210938 1230.988281 381 1214.179688 383.410156 C 1197.359375 385.808594 1163.730469 390.609375 1146.921875 402.621094 C 1130.109375 414.628906 1076.070312 501.101562 1076.070312 501.101562 L 1091.679688 490.289062 C 1091.679688 490.289062 1083.269531 523.921875 1083.269531 529.921875 C 1083.269531 535.929688 1092.878906 582.769531 1092.878906 582.769531 C 1092.878906 582.769531 1083.410156 597.929688 1083.410156 611.511719 C 1083.410156 625.101562 1091.058594 698.128906 1098.691406 703.230469 C 1106.339844 708.320312 1119.078125 714.269531 1119.078125 714.269531 C 1119.078125 714.269531 1091.898438 743.140625 1071.519531 748.230469 C 1071.519531 748.230469 1116.53125 759.269531 1131.820312 751.628906 L 1134.359375 782.199219 C 1134.359375 782.199219 1076.621094 809.378906 1070.671875 818.71875 C 1064.730469 828.058594 1063.878906 845.890625 1063.878906 845.890625 L 993.199219 914.230469 C 993.199219 914.230469 963.175781 921.429688 950.566406 939.441406 C 937.957031 957.460938 945.160156 971.269531 922.945312 983.878906 C 900.726562 996.488281 891.71875 1003.101562 889.316406 1009.101562 C 886.917969 1015.109375 867.714844 1032.71875 849.03125 1076.871094 C 830.347656 1121.039062 831.070312 1142.410156 831.070312 1161.621094 C 831.070312 1180.839844 832.273438 1224.070312 823.867188 1252.890625 C 815.460938 1281.71875 802.25 1329.761719 802.25 1358.578125 C 802.25 1387.398438 817.859375 1457.058594 810.65625 1476.269531 C 803.449219 1495.488281 797.445312 1533.921875 797.445312 1543.519531 C 797.445312 1553.128906 804.652344 1565.140625 804.652344 1565.140625 C 804.652344 1565.140625 792.640625 1573.550781 796.242188 1581.960938 C 799.847656 1590.359375 804.652344 1593.960938 804.652344 1593.960938 C 804.652344 1593.960938 803.449219 1663.621094 803.449219 1680.429688 C 803.449219 1697.25 826.265625 1764.5 826.265625 1764.5 C 826.265625 1764.5 810.65625 1783.710938 819.0625 1790.921875 C 827.46875 1798.128906 834.675781 1801.730469 834.675781 1801.730469 C 834.675781 1801.730469 861.09375 1850.96875 853.890625 1865.378906 C 846.683594 1879.789062 799.847656 1877.320312 792.640625 1896.609375 C 785.433594 1915.890625 769.824219 1954.25 769.824219 1954.25 C 769.824219 1954.25 739.800781 1980.671875 736.195312 1999.890625 C 732.59375 2019.101562 730.191406 2046.71875 730.191406 2046.71875 C 730.191406 2046.71875 708.574219 2045.519531 702.570312 2056.328125 C 696.566406 2067.140625 691.761719 2079.148438 691.761719 2079.148438 C 691.761719 2079.148438 673.746094 2046.71875 636.515625 2051.53125 C 599.289062 2056.328125 540.441406 2110.371094 540.441406 2110.371094 C 540.441406 2110.371094 459.976562 2127.191406 440.761719 2141.601562 C 421.546875 2156.011719 368.707031 2219.660156 368.707031 2252.089844 C 368.707031 2284.511719 377.113281 2319.339844 408.335938 2327.75 C 439.5625 2336.148438 467.183594 2322.941406 467.183594 2322.941406 C 467.183594 2322.941406 467.183594 2363.769531 474.386719 2385.390625 C 481.59375 2407.011719 498.40625 2425.019531 498.40625 2425.019531 C 498.40625 2425.019531 510.417969 2513.890625 544.042969 2528.300781 C 577.671875 2542.71875 614.898438 2524.699219 614.898438 2524.699219 C 674.992188 2513.109375 667.410156 2515.25 704.972656 2479.070312 C 704.972656 2479.070312 759.015625 2446.640625 767.421875 2428.621094 C 775.828125 2410.609375 810.65625 2375.78125 810.65625 2375.78125 C 810.65625 2375.78125 839.476562 2368.578125 843.082031 2362.570312 C 846.683594 2356.570312 876.707031 2316.941406 876.707031 2316.941406 C 876.707031 2316.941406 901.925781 2316.941406 918.742188 2304.929688 C 935.554688 2292.921875 964.375 2274.910156 964.375 2274.910156 L 978.789062 2253.289062 C 978.789062 2253.289062 1143.320312 2210.050781 1164.929688 2198.039062 C 1164.929688 2198.039062 1217.78125 2242.480469 1223.78125 2242.480469 C 1229.789062 2242.480469 1247.800781 2249.679688 1247.800781 2249.679688 C 1247.800781 2249.679688 1321.058594 2379.390625 1331.871094 2380.589844 C 1342.679688 2381.789062 1388.308594 2395 1388.308594 2395 L 1421.941406 2482.671875 C 1421.941406 2482.671875 1419.539062 2499.480469 1421.941406 2506.691406 C 1424.339844 2513.890625 1443.558594 2557.128906 1443.558594 2557.128906 C 1443.558594 2557.128906 1432.75 2644.800781 1429.140625 2689.230469 C 1425.539062 2733.671875 1425.539062 2854.964844 1431.550781 2869.375 C 1437.550781 2883.785156 1473.578125 2981.0625 1469.980469 3035.105469 C 1466.378906 3089.148438 1457.058594 3193.082031 1457.058594 3244.035156 C 1457.058594 3294.988281 1431.578125 3361.226562 1480.839844 3373.113281 C 1530.089844 3385.003906 1579.339844 3337.449219 1599.71875 3320.464844 C 1620.109375 3303.480469 1645.578125 3255.925781 1645.578125 3255.925781 C 1645.578125 3255.925781 1716.910156 3211.765625 1723.710938 3169.304688 C 1730.5 3126.847656 1728.800781 3062.308594 1708.421875 3047.019531 C 1688.039062 3031.734375 1667.660156 3021.546875 1647.28125 3030.039062 C 1626.898438 3038.53125 1609.910156 3057.210938 1609.910156 3057.210938 C 1609.910156 3057.210938 1645.578125 2894.164062 1652.378906 2860.195312 C 1659.171875 2826.230469 1679.550781 2712.441406 1677.851562 2690.359375 C 1676.148438 2668.28125 1642.179688 2515.421875 1642.179688 2515.421875 C 1642.179688 2515.421875 1640.511719 2478.460938 1637.511719 2471.261719 C 1634.511719 2464.050781 1627.300781 2463.449219 1627.300781 2463.449219 C 1627.300781 2463.449219 1644.109375 2365.25 1633.308594 2337.03125 C 1633.308594 2337.03125 1648.980469 2270.851562 1648.128906 2226.691406 C 1647.28125 2182.53125 1611.691406 2092.359375 1611.691406 2092.359375 L 1582.871094 2037.121094 C 1582.871094 2037.121094 1586.46875 2020.308594 1586.46875 2014.300781 C 1586.46875 2008.289062 1569.660156 1991.480469 1569.660156 1991.480469 L 1567.25 1953.050781 C 1567.25 1953.050781 1584.070312 1946.980469 1581.660156 1931.429688 C 1579.269531 1915.890625 1572.058594 1905.011719 1572.058594 1905.011719 C 1572.058594 1905.011719 1581.660156 1795.730469 1550.441406 1746.480469 C 1550.441406 1746.480469 1557.648438 1709.261719 1560.050781 1675.628906 C 1562.449219 1642 1557.648438 1578.351562 1557.648438 1578.351562 C 1557.648438 1578.351562 1568.460938 1514.699219 1570.859375 1500.289062 C 1573.261719 1485.878906 1570.859375 1451.050781 1570.859375 1451.050781 C 1570.859375 1451.050781 1576.859375 1405.410156 1576.859375 1393.410156 L 1576.859375 1108.78125 L 1588.871094 1101.570312 C 1588.871094 1101.570312 1634.511719 1111.179688 1669.339844 1111.179688 C 1704.160156 1111.179688 1800.238281 1108.78125 1800.238281 1108.78125 C 1800.238281 1108.78125 1862.691406 1130.398438 1883.109375 1130.398438 L 1908.320312 1130.398438 C 1908.320312 1130.398438 1929.941406 1141.210938 1939.550781 1141.210938 C 1949.160156 1141.210938 1957.558594 1137.609375 1995.988281 1140 C 2034.429688 1142.410156 2071.648438 1155.621094 2072.859375 1148.410156 C 2074.058594 1141.210938 2080.058594 1123.191406 2080.058594 1123.191406 C 2080.058594 1123.191406 2100.75 1116.789062 2123.679688 1121.878906 C 2146.609375 1126.980469 2133.019531 1179.628906 2138.121094 1186.421875 C 2143.210938 1193.210938 2153.398438 1192.371094 2153.398438 1192.371094 C 2153.398438 1192.371094 2153.398438 1205.109375 2165.289062 1205.109375 C 2177.179688 1205.109375 2211.148438 1177.078125 2211.148438 1177.078125 L 2214.550781 1154.148438 C 2214.550781 1154.148438 2245.121094 1135.46875 2245.121094 1130.371094 C 2245.121094 1125.28125 2243.421875 1115.941406 2243.421875 1115.941406 C 2243.421875 1115.941406 2257.859375 1109.988281 2256.160156 1098.109375 C 2254.460938 1086.210938 2202.660156 1020.828125 2192.46875 1019.980469 C 2182.28125 1019.128906 2093.109375 1023.371094 2093.109375 1023.371094 C 2093.109375 1023.371094 2087.160156 1016.578125 2082.070312 1015.730469 C 2076.980469 1014.878906 2060.839844 1020.828125 2060.839844 1020.828125 L 2046.398438 1016.578125 C 2046.398438 1016.578125 2026.019531 994.691406 2016.410156 994.691406 L 2006.808594 994.691406 C 2006.808594 994.691406 2003.199219 969.46875 1975.578125 969.46875 C 1947.960938 969.46875 1892.710938 970.671875 1857.878906 956.261719 C 1823.058594 941.851562 1749.800781 899.820312 1714.96875 902.21875 C 1680.140625 904.621094 1653.71875 905.820312 1621.300781 889.011719 C 1588.871094 872.191406 1612.890625 848.179688 1567.25 816.949219 C 1521.621094 785.730469 1453.160156 765.308594 1445.960938 765.308594 C 1438.75 765.308594 1375.101562 777.921875 1375.101562 777.921875 Z M 1375.101562 777.921875 "/>
<path fill-rule="nonzero" fill="rgb(0%, 0%, 0%)" fill-opacity="1" d="M 978.988281 3168.195312 C 978.988281 3282.410156 1070.238281 3375 1182.800781 3375 C 1295.359375 3375 1386.609375 3282.410156 1386.609375 3168.195312 C 1386.609375 3053.980469 1295.359375 2961.390625 1182.800781 2961.390625 C 1070.238281 2961.390625 978.988281 3053.980469 978.988281 3168.195312 Z M 978.988281 3168.195312 "/>
</svg>
